<svg t="1656570168125" class="icon" viewBox="0 0 1024 1024" version="1.1" xmlns="http://www.w3.org/2000/svg" p-id="2917" width="200" height="200"><path d="M511.7 63.9c-247.1 0-447.5 200.3-447.5 447.5s200.3 447.5 447.5 447.5 447.5-200.3 447.5-447.5S758.8 63.9 511.7 63.9z m153.2 600.3c-4.7 4.7-10.8 7-17 7s-12.3-2.3-17-7L512.4 545.7 393.2 664.9c-4.7 4.7-10.8 7-17 7s-12.3-2.3-17-7c-9.4-9.4-9.4-24.6 0-33.9l119.2-119.2-120.5-120.6c-9.4-9.4-9.4-24.6 0-33.9 9.4-9.4 24.6-9.4 33.9 0l120.6 120.6 118.3-118.3c9.4-9.4 24.6-9.4 33.9 0 9.4 9.4 9.4 24.6 0 33.9L546.4 511.8l118.5 118.5c9.4 9.3 9.4 24.5 0 33.9z" p-id="2918"></path></svg>